<svg width="231" height="33" viewBox="0 0 231 33" fill="none" xmlns="http://www.w3.org/2000/svg">
<g id="ANALYTICS">
<path d="M20.6368 25.9232H10.4716L8.69634 31.6716H0.771233L12.0566 0.901019H19.0307L30.4006 31.6716H22.4332L20.6368 25.9232ZM12.2468 20.196H18.8616L15.5436 9.52354L12.2468 20.196Z" fill="white"/>
<path d="M58.3604 31.6716H50.9847L40.0798 12.5245V31.6716H32.6619V0.901019H40.0798L50.9636 20.0481V0.901019H58.3604V31.6716Z" fill="white"/>
<path d="M80.9099 25.9232H70.7447L68.9694 31.6716H61.0443L72.3297 0.901019H79.3038L90.6737 31.6716H82.7063L80.9099 25.9232ZM72.5199 20.196H79.1347L75.8167 9.52354L72.5199 20.196Z" fill="white"/>
<path d="M100.353 25.9655H113.266V31.6716H92.935V0.901019H100.353V25.9655Z" fill="white"/>
<path d="M121.74 14.2575L127.404 0.901019H135.414L125.502 20.6187V31.6716H117.978V20.6187L108.088 0.901019H116.055L121.74 14.2575Z" fill="white"/>
<path d="M162.19 6.62823H152.954V31.6716H145.537V6.62823H136.47V0.901019H162.19V6.62823Z" fill="white"/>
<path d="M173.243 31.6716H165.846V0.901019H173.243V31.6716Z" fill="white"/>
<path d="M203.295 21.2527C203.196 23.3942 202.618 25.2892 201.562 26.9376C200.505 28.572 199.019 29.84 197.103 30.7417C195.201 31.6434 193.024 32.0943 190.572 32.0943C186.529 32.0943 183.345 30.7769 181.02 28.1423C178.695 25.5076 177.533 21.7881 177.533 16.9837V15.4621C177.533 12.447 178.054 9.81236 179.097 7.55811C180.153 5.28977 181.668 3.54272 183.64 2.31697C185.613 1.07713 187.895 0.457212 190.488 0.457212C194.221 0.457212 197.222 1.44345 199.491 3.41592C201.759 5.3743 203.048 8.07941 203.358 11.5312H195.961C195.905 9.65738 195.433 8.31188 194.545 7.49471C193.658 6.67754 192.305 6.26896 190.488 6.26896C188.642 6.26896 187.29 6.95932 186.43 8.34006C185.571 9.72079 185.12 11.9257 185.078 14.9549V17.1316C185.078 20.4144 185.486 22.7602 186.303 24.1691C187.135 25.5781 188.558 26.2825 190.572 26.2825C192.277 26.2825 193.58 25.881 194.482 25.0779C195.384 24.2748 195.863 22.9997 195.919 21.2527H203.295Z" fill="white"/>
<path d="M222.674 23.4929C222.674 22.408 222.287 21.5627 221.512 20.9568C220.751 20.351 219.406 19.724 217.475 19.0759C215.545 18.4278 213.967 17.8009 212.741 17.195C208.754 15.2367 206.761 12.5456 206.761 9.122C206.761 7.41722 207.254 5.91673 208.24 4.62054C209.24 3.31025 210.649 2.29584 212.467 1.57729C214.284 0.844662 216.327 0.478346 218.596 0.478346C220.807 0.478346 222.787 0.87284 224.534 1.66183C226.295 2.45082 227.662 3.57794 228.634 5.04321C229.606 6.49439 230.092 8.1569 230.092 10.0307H222.695C222.695 8.77682 222.308 7.80467 221.533 7.1143C220.772 6.42394 219.737 6.07876 218.426 6.07876C217.102 6.07876 216.052 6.37463 215.278 6.96637C214.517 7.54402 214.136 8.2837 214.136 9.1854C214.136 9.97439 214.559 10.6929 215.404 11.341C216.25 11.975 217.736 12.6372 219.864 13.3276C221.991 14.0039 223.738 14.7365 225.105 15.5255C228.43 17.4416 230.092 20.0833 230.092 23.4506C230.092 26.1416 229.078 28.255 227.049 29.7907C225.02 31.3264 222.238 32.0943 218.701 32.0943C216.207 32.0943 213.946 31.6504 211.917 30.7628C209.903 29.8611 208.381 28.6354 207.352 27.0856C206.338 25.5217 205.831 23.7253 205.831 21.6965H213.27C213.27 23.3449 213.693 24.5636 214.538 25.3526C215.397 26.1275 216.785 26.515 218.701 26.515C219.927 26.515 220.892 26.2543 221.596 25.733C222.315 25.1976 222.674 24.4509 222.674 23.4929Z" fill="white"/>
</g>
</svg>
